<svg xmlns="http://www.w3.org/2000/svg" viewBox="0 0 150 150" fill="currentColor">
  <path d="m133.9 3.2c-17.4 2.3-49.8 8.3-77.9 19.9-5.8 2.4-15.1 6.2-23.6 11.7-0.7 0.5-1.3 1.7-2.5 6.5-2.9 11.8-7.9 33-8.1 43.1 0 1 0.4 1.6 1.3 1.6l39-0.1c0.6 0 1.4-0.2 1.9-0.6l66.2-50.4c0.7-0.6 4.6-22.7 6.1-29.6 0.3-1.7-1-2.3-2.4-2.1z"/>
  <path d="m101.5 66.3 16.5 18.8c0.5 0.5 1 0.9 1.5 0.9h1.4c0.6 0 0.7-1.1 0.8-1.7l6.1-40.4-26.3 22.4z"/>
  <path d="m18.2 136.5v-17.1h-4.4v-3.8h4.4v-4.6c0-5.4 2.7-9.8 8.8-9.8 1.5 0 2.9 0.1 3.7 0.2l-0.3 4.8c-0.7-0.3-1.6-0.4-2.4-0.4-2.9 0-4.3 1.4-4.3 4.8v5h5.8v3.8h-5.8v17.1h-5.5z"/>
  <path d="m33.3 136.5v-20.9h5.8v4.3h0.1c1.1-2.6 2.7-5 6.4-5 0.7 0 1.2 0.1 1.7 0.2v4.8c-0.7-0.3-1.2-0.4-2.1-0.4-3 0-6.1 1.8-6.1 6.3v10.7h-5.8z"/>
  <path d="m67.6 115.6h5.1v19.1c0 6.5-3.1 11.8-11.9 11.8-3.4 0-6.6-0.8-9.7-2.3l1.5-4.3c2.3 1.4 4.9 2.3 7.5 2.3 5.7 0 7.3-3.1 7.3-7.6v-1.7h-0.1c-1.6 2.4-4 3.9-7.4 3.9-6.1 0-9.9-4.4-9.9-10.8 0-5.9 3.6-11 9.9-11 3.4 0 5.9 1.5 7.6 3.8h0.1v-3.2zm-6.2 17.3c3.9 0 5.9-2.8 5.9-6.7s-2.3-7.3-5.9-7.3-5.8 3-5.8 6.9c0 4.1 1.9 7.1 5.8 7.1z"/>
  <path d="m114.3 136.5h-5.7v-10.7c0-3.2-0.5-6.9-4.1-6.9-3.5 0-5.4 3.3-5.4 6.6v11h-5.5v-10.7c0-3.3-0.6-6.9-4-6.9s-5.8 2.7-5.8 6.9v10.7h-5.4v-20.9h5.3v3.7h0.1c1.4-2.4 3.8-4.3 7.1-4.3 3.6 0 6 1.7 7.3 4.6 1.6-2.7 4.1-4.6 8.1-4.6 5.7 0 8 3.5 8 9.4v12.1z"/>
  <path d="m122.2 107.5 5.9-0.7v8.8h6v3.8h-6v10.3c0 2.9 1 3.9 3.1 3.9 1.1 0 2.1-0.3 3.1-0.9l0.6 3.8c-1.4 0.7-3.2 1.1-5.1 1.1-4.5 0-7.6-1.7-7.6-6.9v-11.3h-4.3v-3.8h4.3v-8.1z"/>
</svg>