<svg xmlns="http://www.w3.org/2000/svg" viewBox="0 0 150 150" fill="currentColor" aria-hidden="true">
  <!-- passport mark — paper plane + sparkle + dashed trail -->
  <g>
    <path d="m26.2 96.7c1.7-7.6 11-40.3 12.8-46.7 0.6-2.6 1.7-6 5.9-5.3l17.5 4.3c4.8 1.1 9.2 2.5 14.6-0.1 4.8-2 5.6-5 5-8.5l-1.3-10.3c-0.3-7.5 5.1-16.7 14.7-17.3 3.3-0.2 6.7-0.2 9.9 1.4 5.1 2.4 9.8 8.3 9.8 14.8 0 12.4-10.8 15.8-14.2 21.8-1.3 2.7-0.3 6.3-0.2 7.8-6.8 2-34.6 11-60.8 27.6-4.6 2.9-11.7 7.8-13.7 10.5z"/>
    <path d="m37 95.6c0.4-0.9 1.7-2 3.4-3.3 8-6.3 27.4-16.1 36.2-19.8 8.2-3.5 22.9-9.3 26.2-9.8h0.4l14.1 5c4.2 1.4 4.5 2.9 3.9 5.5l-16.8 53.3c-0.3 0.6-1.5 0.6-1.9 0.1-4.9-7.5-11.9-13-19.7-16.9-12.9-6.4-25.1-9.7-34.5-12.3l-11.3-1.6z" opacity="0.82"/>
    <path d="m95 129.3c-2.6 0-5.8-1.6-9.9-2.6l-47.9-13.1c-5.6-2-11.7-2.7-11.7-8.3 0.2-2.9 2.9-4.8 10.7-4.7 4.4 0 16.9 1 27.1 4.3 7.8 2.4 17.6 6.1 25.6 11.8 3.7 2.7 8.6 7 8.6 9.6 0.1 1.6-0.8 3-2.5 3z" opacity="0.68"/>
  </g>
  <path d="m85.8 78.3c0.9-0.7 5.8 0.5 8.4-1.4 1.9-1 4.9-5.5 5.4-5.5 2 0 0.8 6.3 2.8 8.4 2 2.2 6 3.1 6 4.1 0.2 1.4-3 0.5-7.3 2.5-3 1.5-4.2 5.1-6.7 6.6-1.4 0-1.4-4.8-2-6.6-1.4-4.2-8-7.1-7-7.8z" opacity="0.55"/>
  <g opacity="0.55">
    <path d="m132.8 12.5c1.2 6.1 4.3 9.2 9.3 11.1-6.1 1.8-7.9 4.3-9 11-1.6-5.2-4.1-9.2-9.9-11 5.7-1.2 8.2-5.2 9.6-11.1z"/>
    <path d="m140.1 34.6c1.3 0 2.5 2.3 2.8 3.8 0 0.7-0.7 1.8-1.3 1.6h-1.6c-0.8-0.1-1.8-2.6-1.9-2.9-0.5-1.7 0.8-2.6 2-2.5z"/>
    <path d="m143.9 43.8c1.5-0.2 2.5 3.8 2.3 6.1-0.1 1.3-1.6 3.2-3 1.8-1.1-1.1-2.3-5.7-1.1-7.2l1.8-0.7z"/>
    <path d="m143.4 56.9c1.2-0.1 2.2 0.7 2.2 2 0 1.5-1.2 4-2 5.3-2 1.2-3.5-0.8-3-2.5 0.6-1.3 1.5-4.8 2.8-4.8z"/>
    <path d="m138.1 67.6c1.3 0 3.1 1.5 2.1 3.3-0.8 1.2-2.6 3.6-4 3.7-0.8 0.3-2.3-1-1.8-2.5 0-0.9 2.7-4.4 3.7-4.5z"/>
    <path d="m130.1 75.9c1.3 0.5 2 3 0 4.1-1 0.6-3.2 2.6-4.6 1.9-1.3-0.4-2.1-2.3 0.1-4 1.1-0.9 3.5-2.3 4.5-2z"/>
    <path d="m17.4 93.5c2.2-0.9 3.3 0.6 2.8 2.7-0.6 1-3.2 2.7-4.6 3.2-1.7 0-3-1.8-2.2-3 0.7-0.8 3-2.5 4-2.9z"/>
    <path d="m8.6 101.4c1.3-0.4 3.1 0.3 2.4 3.1l-2.1 4c-1.4 2-3.9 1-3.4-1.6 0-1.3 2.1-4.5 3.1-5.5z"/>
    <path d="m4.7 114.4c1.9-0.8 2.8 1.6 3.4 5.2 0.3 1-1.2 3-2.6 1.9-1.1-1.3-2-4.1-1.6-6l0.8-1.1z"/>
    <path d="m10.4 125.1c0.8-0.9 2.1-0.6 3 0 1.2 0.8 3.3 2 3.2 2.5 1 0.9 0.3 3.6-1.7 3.6-2.4-0.7-5.3-3.1-5.5-3.7-0.3-1.3 0.2-2 1-2.4z"/>
    <path d="m21.9 131.2c1-1.1 5.7 0.4 6.5 1.5 1.2 1.2 0.6 3.7-1.4 3.4-2.9-0.4-5.6-2-6.1-2.7-0.3-0.7 0.2-1.9 1-2.2z"/>
    <path d="m35.7 133.6c1.2 0 4.2 0 5.5 0.5 1.7 0.5 1.7 3.4-0.1 3.6-2.2 0.2-6.1 0.2-6.9-1.1-0.6-1 0-3 1.5-3z"/>
    <path d="m48.9 134.2c0.7-0.3 4.3-0.2 5.2-0.3 2.3 0 2.6 2.2 1.3 3-1.9 0.7-5 1-7 0-0.8-0.9-0.5-2.4 0.5-2.7z"/>
    <path d="m62.1 133.1c1.8-0.5 6.8-1.5 9.8-1.2 1 0.5-0.5 1-2.2 1.6-1.6 0.6-6.3 2.5-7.3 2-0.7-0.6-1.5-1.9-0.3-2.4z"/>
  </g>
</svg>
